<?xml version="1.0" encoding="UTF-8"?>
<svg width="32" height="32" viewBox="0 0 32 32" fill="none" xmlns="http://www.w3.org/2000/svg">
    <rect width="32" height="32" rx="8" fill="#1A1F2C"/>
    <path d="M16 6C10.477 6 6 10.477 6 16C6 21.523 10.477 26 16 26C21.523 26 26 21.523 26 16C26 10.477 21.523 6 16 6ZM16 24C11.582 24 8 20.418 8 16C8 11.582 11.582 8 16 8C20.418 8 24 11.582 24 16C24 20.418 20.418 24 16 24Z" fill="#4EFF91"/>
    <path d="M16 10C14.4087 10 12.8826 10.6321 11.7574 11.7574C10.6321 12.8826 10 14.4087 10 16C10 17.5913 10.6321 19.1174 11.7574 20.2426C12.8826 21.3679 14.4087 22 16 22C17.5913 22 19.1174 21.3679 20.2426 20.2426C21.3679 19.1174 22 17.5913 22 16C22 14.4087 21.3679 12.8826 20.2426 11.7574C19.1174 10.6321 17.5913 10 16 10Z" fill="#4EFF91" fill-opacity="0.3"/>
    <path d="M16 12C16.8284 12 17.5 12.6716 17.5 13.5C17.5 14.3284 16.8284 15 16 15C15.1716 15 14.5 14.3284 14.5 13.5C14.5 12.6716 15.1716 12 16 12Z" fill="#4EFF91"/>
</svg>
